<svg id="Layer_1" data-name="Layer 1" xmlns="http://www.w3.org/2000/svg" viewBox="0 0 403.5 173.92"><defs><style>.cls-1{fill:#fff;}</style></defs><title>SVI long blanc</title><path class="cls-1" d="M143.81,125.49a33.78,33.78,0,0,0,4.23-.16c6.34-.63,12.72-4.61,13.7-12.34a33.23,33.23,0,0,0,.06-9c-1.23-8.27-7-11.88-15.05-9.55a31.3,31.3,0,0,0-6.5,2.7C128,103.93,118.5,113.69,111,125.46a6,6,0,0,0-.47,6.29c1.53,3.06,3.11,6.11,4.91,9,8.35,13.5,16.89,26.89,25.15,40.44,4.41,7.24,8.32,14.79,10.27,23.15,1.31,5.63,1.32,11.11-2.74,15.84-2.25,2.62-4.82,3.4-7.95,2a22,22,0,0,1-5.3-3.26c-4.38-3.67-8.09-7.86-9.83-13.51-.48-1.58-1.43-3-3.38-3a5.06,5.06,0,0,0-4.8,2.42,8.07,8.07,0,0,0-1.11,3.31,11.38,11.38,0,0,0,1.54,5.5c4.69,9.67,12.45,16.29,21.91,20.94,5.82,2.86,11.68,2.66,16.83-1.67a24.33,24.33,0,0,0,8.36-14.6c1-5.63.1-11.12-1.46-16.53-3.4-11.75-9.37-22.28-15.67-32.63-5.53-9.08-11.31-18-16.86-27.07a14.94,14.94,0,0,1-1.23-13.57c.92-2.47,2.61-3.83,5.39-3.62C137.63,125.16,140.72,125.31,143.81,125.49Zm59.91,35.76a166.94,166.94,0,0,1-5,44.58c-1.28,4.95-2.77,9.86-5.76,14.11-2.16,3.08-4.95,3.31-7.61.62a11.41,11.41,0,0,1-2.33-3.25,41.64,41.64,0,0,1-2.51-6.79c-3.75-15-4.89-30.23-4.5-45.63.07-2.89.22-5.79.18-8.68s-1.69-5.22-3.83-5.84-5,.58-6.52,3a10.47,10.47,0,0,0-1.32,7c1.05,11.12,2,22.24,3.11,33.35,1.15,11.34,3.17,22.53,7.79,33a61.59,61.59,0,0,0,6.21,10.52,5.72,5.72,0,0,0,7.21,2.06,24.09,24.09,0,0,0,6.68-3.91c5.25-4.74,8.3-11,9.95-17.7a271.15,271.15,0,0,0,5.62-28,182.46,182.46,0,0,0,1.9-27.52c-.19-13.37-1.26-26.73-2.24-40.07a155.16,155.16,0,0,0-2.42-16.14,6.18,6.18,0,0,0-2.07-3.71,38.41,38.41,0,0,0-8.39-4.78,3.07,3.07,0,0,0-3,.94,10.64,10.64,0,0,0-1.76,8.65c.27,1,1.7,2.33,2.57,2.3,2.23,0,2.76,1.33,3.27,2.86a30.59,30.59,0,0,1,1,3.91C202.9,131,203.56,146.11,203.72,161.25Zm25,4.9a88.81,88.81,0,0,1-16.43,48.14,21.42,21.42,0,0,0-2.91,5.69c-.87,2.73.61,4.18,3.48,4.08s4.4-2.1,6.07-3.91c21.91-23.73,26.21-59.2,13.07-87.54a14.66,14.66,0,0,0-2.63-3.78,3.72,3.72,0,0,0-4.46-.8,6.74,6.74,0,0,0-3.36,8.93C225.68,146,228.53,155.43,228.72,166.15ZM140.57,89.32c-.28-3.55-1.19-6.88-3.93-9.4-2-1.85-4-1.26-4.64,1.4-.9,3.63.22,6.91,2.13,9.94,1,1.55,2.27,3.18,4.36,2.51S140.57,91.18,140.57,89.32Zm-20.75,2.57a11.11,11.11,0,0,0,4,8.93,3.51,3.51,0,0,0,2.87.62c.65-.25,1.2-1.56,1.26-2.44a10.32,10.32,0,0,0-3.42-8.47,3.87,3.87,0,0,0-3.17-1A2.79,2.79,0,0,0,119.82,91.89Zm-2.09,16.91c.12-2.16-1.63-6.18-4.24-7.93a2.12,2.12,0,0,0-3.55,2,9.55,9.55,0,0,0,4,7.31,3.14,3.14,0,0,0,2.57.43A2.41,2.41,0,0,0,117.73,108.8Zm-14.56,7a7.5,7.5,0,0,0,3.44,5.52c1.64,1,2.87.37,2.77-1.51a7.3,7.3,0,0,0-3.51-6C104.3,112.81,102.92,113.73,103.17,115.81Z" transform="translate(-103.14 -67.91)"/><path class="cls-1" d="M157.85,79.64A13.62,13.62,0,0,1,156.33,86c-1.38,2.66-4,2.93-6.26,1-4-3.37-5.2-12.73-2.21-17,1.67-2.41,4.22-2.71,6.35-.64C157.11,72.12,157.6,75.3,157.85,79.64Z" transform="translate(-103.14 -67.91)"/><path class="cls-1" d="M254.64,116a2.07,2.07,0,0,1,.46-1.22,1.28,1.28,0,0,1,1-.63.43.43,0,0,1,.28.08,12.44,12.44,0,0,0,4.15,2.66,13.19,13.19,0,0,0,5.22,1.2q7.05,0,7-4.69a3.58,3.58,0,0,0-1-2.58,6.15,6.15,0,0,0-2.63-1.53,30.52,30.52,0,0,0-3.48-.89c-1.21-.24-2.43-.52-3.65-.83a17.93,17.93,0,0,1-3.4-1.22,6,6,0,0,1-2.52-2.28,6.88,6.88,0,0,1-1-3.75,5.67,5.67,0,0,1,2.92-5.1,13.09,13.09,0,0,1,7-1.79,16.85,16.85,0,0,1,5.93,1,8.36,8.36,0,0,1,4.08,2.94.54.54,0,0,1,0,.2,1.33,1.33,0,0,1-.65,1,2,2,0,0,1-1.17.49,1.79,1.79,0,0,1-.47-.19,11.73,11.73,0,0,0-7.72-2.56,11,11,0,0,0-4.92,1.05,3.39,3.39,0,0,0-2.13,3.19,3.18,3.18,0,0,0,1,2.42,5.29,5.29,0,0,0,2.5,1.32c1,.25,2.13.5,3.36.77s2.5.57,3.79.92a18.89,18.89,0,0,1,3.5,1.33,6.36,6.36,0,0,1,2.53,2.41,7.43,7.43,0,0,1,1,3.92q0,7.32-9.69,7.33a17.69,17.69,0,0,1-6.19-1.13,13.27,13.27,0,0,1-5-3.09A1,1,0,0,1,254.64,116Z" transform="translate(-103.14 -67.91)"/><path class="cls-1" d="M279.07,110.61a9,9,0,0,1,1.1-4.49,8.54,8.54,0,0,1,2.91-3.11,14.46,14.46,0,0,1,3.9-1.71,16.14,16.14,0,0,1,4.26-.57,9.53,9.53,0,0,1,6,1.67,5.09,5.09,0,0,1,2.12,4.12,5.45,5.45,0,0,1-2.48,4.49q-2.47,1.84-7.05,1.85a25.45,25.45,0,0,1-7.8-1.18,7.79,7.79,0,0,0,2.72,4.88,8.28,8.28,0,0,0,5.63,2,13.26,13.26,0,0,0,3.69-.55,7.45,7.45,0,0,0,3-1.57.63.63,0,0,1,.63-.32,2,2,0,0,1,1.18.49,1.35,1.35,0,0,1,.63,1,6,6,0,0,1-3.84,2.93,17.82,17.82,0,0,1-5.53.93,10.66,10.66,0,0,1-8-3.19A10.55,10.55,0,0,1,279.07,110.61Zm3.11-2a18.32,18.32,0,0,0,7.33,1.3,10.15,10.15,0,0,0,5.2-1.09,3,3,0,0,0,1.77-2.42,2.32,2.32,0,0,0-1.48-2,11.29,11.29,0,0,0-9.65.59A8.88,8.88,0,0,0,282.18,108.65Z" transform="translate(-103.14 -67.91)"/><path class="cls-1" d="M303.37,119.91V102.46c0-.71.5-1.06,1.5-1.06a1.78,1.78,0,0,1,1,.27.9.9,0,0,1,.42.79v4.93a14.7,14.7,0,0,1,3.33-4.89,7,7,0,0,1,4.86-1.65,17.18,17.18,0,0,1,4.29.55,1.67,1.67,0,0,1,1.15,1.49,1.33,1.33,0,0,1-.28,1,1.54,1.54,0,0,1-.91.35,15.09,15.09,0,0,0-3.26-.47,6.89,6.89,0,0,0-5.32,2.88,21.74,21.74,0,0,0-3.86,7.48v5.83a.94.94,0,0,1-.44.81,1.75,1.75,0,0,1-1,.29C303.86,121,303.37,120.65,303.37,119.91Z" transform="translate(-103.14 -67.91)"/><path class="cls-1" d="M321.1,102.78a1.26,1.26,0,0,1,.59-1,2,2,0,0,1,1.18-.43,1,1,0,0,1,.95.59l8.07,14.38L340,101.91a1,1,0,0,1,.94-.59,2,2,0,0,1,1.18.43,1.25,1.25,0,0,1,.6,1,.76.76,0,0,1-.08.39l-9.14,16.47c-.45.92-1,1.37-1.62,1.37s-1.13-.45-1.57-1.37l-9.14-16.47A.67.67,0,0,1,321.1,102.78Z" transform="translate(-103.14 -67.91)"/><path class="cls-1" d="M345.88,96.28v-.71c0-.71.5-1.07,1.49-1.07a1.82,1.82,0,0,1,1,.28.9.9,0,0,1,.41.79v.71a.9.9,0,0,1-.43.8,1.76,1.76,0,0,1-1,.3C346.36,97.38,345.88,97,345.88,96.28Zm0,23.63V102.38c0-.71.5-1.06,1.49-1.06a1.81,1.81,0,0,1,1,.27.91.91,0,0,1,.41.79v17.53a.93.93,0,0,1-.43.81,1.76,1.76,0,0,1-1,.29C346.36,121,345.88,120.65,345.88,119.91Z" transform="translate(-103.14 -67.91)"/><path class="cls-1" d="M352.65,111.25a9.64,9.64,0,0,1,1.81-5.85,10.61,10.61,0,0,1,4.38-3.57,13.45,13.45,0,0,1,5.35-1.1,10.25,10.25,0,0,1,6.58,2.44.9.9,0,0,1,.32.71,1.64,1.64,0,0,1-.51,1.16,1.49,1.49,0,0,1-1.07.53.94.94,0,0,1-.67-.27,6.88,6.88,0,0,0-4.73-1.66,8.18,8.18,0,0,0-6.28,2.44,7.57,7.57,0,0,0-2.26,5.2,6.74,6.74,0,0,0,2.6,5.11,8.78,8.78,0,0,0,6,2.3,7.14,7.14,0,0,0,5.63-2.48,1.18,1.18,0,0,1,.75-.43,1.56,1.56,0,0,1,1.14.59,1.69,1.69,0,0,1,.55,1.14.84.84,0,0,1-.28.63,9.67,9.67,0,0,1-7.6,3.47,12,12,0,0,1-8.27-3.06A9.44,9.44,0,0,1,352.65,111.25Z" transform="translate(-103.14 -67.91)"/><path class="cls-1" d="M374.32,110.61a9,9,0,0,1,1.1-4.49,8.57,8.57,0,0,1,2.92-3.11,14.19,14.19,0,0,1,3.9-1.71,16.06,16.06,0,0,1,4.25-.57,9.53,9.53,0,0,1,6,1.67,5.06,5.06,0,0,1,2.12,4.12,5.45,5.45,0,0,1-2.48,4.49q-2.47,1.84-7.05,1.85a25.45,25.45,0,0,1-7.8-1.18,7.79,7.79,0,0,0,2.72,4.88,8.28,8.28,0,0,0,5.63,2,13.26,13.26,0,0,0,3.69-.55,7.45,7.45,0,0,0,3-1.57.63.63,0,0,1,.63-.32,2,2,0,0,1,1.18.49,1.35,1.35,0,0,1,.63,1,6,6,0,0,1-3.84,2.93,17.82,17.82,0,0,1-5.53.93,10.66,10.66,0,0,1-8-3.19A10.55,10.55,0,0,1,374.32,110.61Zm3.11-2a18.32,18.32,0,0,0,7.33,1.3,10.15,10.15,0,0,0,5.2-1.09,3,3,0,0,0,1.77-2.42,2.32,2.32,0,0,0-1.48-2,11.29,11.29,0,0,0-9.65.59A9,9,0,0,0,377.43,108.65Z" transform="translate(-103.14 -67.91)"/><path class="cls-1" d="M253.86,141.39a1.24,1.24,0,0,1,.59-1,2,2,0,0,1,1.18-.43,1,1,0,0,1,.94.59L265,162.78l8.51-22.26a1,1,0,0,1,.95-.59,2,2,0,0,1,1.18.43,1.26,1.26,0,0,1,.59,1,1.41,1.41,0,0,1-.08.39l-9.34,24.35a2.5,2.5,0,0,1-.82,1,1.44,1.44,0,0,1-2,0,2.56,2.56,0,0,1-.87-1l-9.26-24.35A1.34,1.34,0,0,1,253.86,141.39Z" transform="translate(-103.14 -67.91)"/><path class="cls-1" d="M277.06,157.74a9.63,9.63,0,0,1,1.79-5.85,10.47,10.47,0,0,1,4.33-3.57,13.4,13.4,0,0,1,5.34-1.1,10.7,10.7,0,0,1,7.27,3,9.65,9.65,0,0,1,3.33,7.51,10.29,10.29,0,0,1-10.68,10.4,11.49,11.49,0,0,1-8-3.06A9.52,9.52,0,0,1,277.06,157.74Zm2.91,0a6.82,6.82,0,0,0,2.56,5.1,8.65,8.65,0,0,0,6,2.3,7.34,7.34,0,0,0,5.46-2.32,7.24,7.24,0,0,0,2.26-5.16,7.59,7.59,0,0,0-2.16-5.16,7.18,7.18,0,0,0-5.6-2.41,8,8,0,0,0-6.24,2.44A7.62,7.62,0,0,0,280,157.78Z" transform="translate(-103.14 -67.91)"/><path class="cls-1" d="M303,166.4V139c0-.71.5-1.06,1.49-1.06a1.74,1.74,0,0,1,1,.28.88.88,0,0,1,.41.78V166.4a.93.93,0,0,1-.43.81,1.75,1.75,0,0,1-1,.3C303.46,167.51,303,167.14,303,166.4Z" transform="translate(-103.14 -67.91)"/><path class="cls-1" d="M309.75,157.74a9.64,9.64,0,0,1,1.8-5.85,10.41,10.41,0,0,1,4.33-3.57,13.33,13.33,0,0,1,5.34-1.1,10.7,10.7,0,0,1,7.26,3,9.65,9.65,0,0,1,3.33,7.51,10.27,10.27,0,0,1-10.67,10.4,11.49,11.49,0,0,1-8-3.06A9.55,9.55,0,0,1,309.75,157.74Zm2.92,0a6.78,6.78,0,0,0,2.56,5.1,8.63,8.63,0,0,0,5.95,2.3,7.34,7.34,0,0,0,5.45-2.32,7.25,7.25,0,0,0,2.27-5.16,7.61,7.61,0,0,0-2.17-5.16,7.16,7.16,0,0,0-5.59-2.41,8.07,8.07,0,0,0-6.25,2.44A7.66,7.66,0,0,0,312.67,157.78Z" transform="translate(-103.14 -67.91)"/><path class="cls-1" d="M335.67,166.48V148.87a.9.9,0,0,1,.42-.79,1.78,1.78,0,0,1,1-.27c1,0,1.5.35,1.5,1.06V152a14.31,14.31,0,0,1,4.76-3.36,13.86,13.86,0,0,1,5.68-1.24,8.78,8.78,0,0,1,6.2,2.3,7.79,7.79,0,0,1,2.5,6c0,.23,0,1.44,0,3.6s0,4.54,0,7.11a.93.93,0,0,1-.43.81,1.75,1.75,0,0,1-1,.3c-1,0-1.46-.37-1.46-1.11V156a5.07,5.07,0,0,0-2-4.29,6.77,6.77,0,0,0-4.12-1.5,11,11,0,0,0-5.89,1.91,10.26,10.26,0,0,0-4.19,4.83v9.49c0,.71-.5,1.06-1.5,1.06a1.78,1.78,0,0,1-1-.27A.89.89,0,0,1,335.67,166.48Z" transform="translate(-103.14 -67.91)"/><path class="cls-1" d="M360.73,149.27a1.76,1.76,0,0,1,.29-1,.93.93,0,0,1,.81-.43h1.34V143a.88.88,0,0,1,.41-.78,1.74,1.74,0,0,1,1-.28c1,0,1.49.35,1.49,1.06v4.85h6.31a.88.88,0,0,1,.78.41,1.74,1.74,0,0,1,.28,1c0,1-.36,1.49-1.06,1.49h-6.31v9.42q0,4.41,3.35,4.41a3.92,3.92,0,0,0,2.46-.79,3.22,3.22,0,0,0,1.05-2.75,1.11,1.11,0,0,1,.45-.91,1.68,1.68,0,0,1,1.08-.36,1.49,1.49,0,0,1,1,.34,1.19,1.19,0,0,1,.39,1,6.18,6.18,0,0,1-1.87,4.77,6.54,6.54,0,0,1-4.55,1.66q-6.26,0-6.26-8.4v-8.35h-1.34C361.09,150.72,360.73,150.24,360.73,149.27Z" transform="translate(-103.14 -67.91)"/><path class="cls-1" d="M378,160.34a12,12,0,0,1,4.14-9.1,13.43,13.43,0,0,1,9.37-3.83,8,8,0,0,1,6.11,2.72,8.86,8.86,0,0,1,2.52,6.19l0,10.32a.91.91,0,0,1-.49.81,2.14,2.14,0,0,1-1.09.29c-.86,0-1.3-.37-1.3-1.1V160a25.47,25.47,0,0,1-6.08,6,11,11,0,0,1-6,1.85,6.69,6.69,0,0,1-5-2.3A7.37,7.37,0,0,1,378,160.34Zm2.84.07a4,4,0,0,0,1.57,3.41,5.52,5.52,0,0,0,3.35,1.16,8.08,8.08,0,0,0,4.69-2,21.08,21.08,0,0,0,4.39-4.53,7.81,7.81,0,0,0,1.75-3.92,3.44,3.44,0,0,0-.69-2.11,4.11,4.11,0,0,0-1.69-1.36,12.39,12.39,0,0,0-1.83-.65,5.39,5.39,0,0,0-1.38-.22,10.69,10.69,0,0,0-10.16,10.24Z" transform="translate(-103.14 -67.91)"/><path class="cls-1" d="M404.57,142.77v-.71c0-.71.5-1.07,1.5-1.07a1.78,1.78,0,0,1,1,.28.89.89,0,0,1,.42.79v.71a.91.91,0,0,1-.44.8,1.75,1.75,0,0,1-1,.3C405.06,143.87,404.57,143.5,404.57,142.77Zm0,23.63V148.87c0-.71.5-1.06,1.5-1.06a1.78,1.78,0,0,1,1,.27.9.9,0,0,1,.42.79V166.4a.94.94,0,0,1-.44.81,1.75,1.75,0,0,1-1,.3C405.06,167.51,404.57,167.14,404.57,166.4Z" transform="translate(-103.14 -67.91)"/><path class="cls-1" d="M412.17,166.4V149c0-.71.5-1.06,1.5-1.06a1.78,1.78,0,0,1,1,.27.9.9,0,0,1,.42.79v4.93a15,15,0,0,1,3.33-4.89,7,7,0,0,1,4.86-1.65,17.31,17.31,0,0,1,4.3.55,1.67,1.67,0,0,1,1.14,1.49,1.28,1.28,0,0,1-.28,1,1.51,1.51,0,0,1-.9.35,15.25,15.25,0,0,0-3.27-.47,6.89,6.89,0,0,0-5.32,2.88,21.74,21.74,0,0,0-3.86,7.48v5.83a.94.94,0,0,1-.44.81,1.73,1.73,0,0,1-1,.3C412.66,167.51,412.17,167.14,412.17,166.4Z" transform="translate(-103.14 -67.91)"/><path class="cls-1" d="M430.1,157.11a9,9,0,0,1,1.1-4.5,8.54,8.54,0,0,1,2.91-3.11,14.46,14.46,0,0,1,3.9-1.71,16.14,16.14,0,0,1,4.26-.57,9.53,9.53,0,0,1,6,1.67,5.09,5.09,0,0,1,2.12,4.12,5.45,5.45,0,0,1-2.48,4.49q-2.47,1.84-7,1.85a25.45,25.45,0,0,1-7.8-1.18,7.79,7.79,0,0,0,2.72,4.88,8.28,8.28,0,0,0,5.63,2,13.26,13.26,0,0,0,3.69-.55,7.45,7.45,0,0,0,3-1.57.63.63,0,0,1,.63-.32,2,2,0,0,1,1.18.49,1.35,1.35,0,0,1,.63,1A6,6,0,0,1,446.7,167a17.82,17.82,0,0,1-5.53.93,10.66,10.66,0,0,1-8-3.19A10.55,10.55,0,0,1,430.1,157.11Zm3.11-2a18.32,18.32,0,0,0,7.33,1.3,10.15,10.15,0,0,0,5.2-1.09,3,3,0,0,0,1.77-2.42,2.32,2.32,0,0,0-1.48-2,11.29,11.29,0,0,0-9.65.59A8.88,8.88,0,0,0,433.21,155.14Z" transform="translate(-103.14 -67.91)"/><path class="cls-1" d="M255.82,213.89V188.48c0-.71.5-1.06,1.5-1.06a1.74,1.74,0,0,1,1,.28.88.88,0,0,1,.41.78v25.41a1,1,0,0,1-.43.81,1.76,1.76,0,0,1-1,.29C256.31,215,255.82,214.63,255.82,213.89Z" transform="translate(-103.14 -67.91)"/><path class="cls-1" d="M264,214V196.36a.91.91,0,0,1,.41-.79,1.81,1.81,0,0,1,1-.27c1,0,1.49.35,1.49,1.06v3.11a14.45,14.45,0,0,1,4.77-3.36,13.83,13.83,0,0,1,5.67-1.25,8.81,8.81,0,0,1,6.21,2.31,7.82,7.82,0,0,1,2.5,6c0,.23,0,1.43,0,3.6s0,4.54,0,7.11a1,1,0,0,1-.43.81,1.76,1.76,0,0,1-1,.29c-1,0-1.46-.36-1.46-1.1V203.53a5,5,0,0,0-2-4.29,6.72,6.72,0,0,0-4.11-1.5,11,11,0,0,0-5.89,1.91,10.28,10.28,0,0,0-4.2,4.83V214c0,.71-.5,1.06-1.49,1.06a1.81,1.81,0,0,1-1-.27A.91.91,0,0,1,264,214Z" transform="translate(-103.14 -67.91)"/><path class="cls-1" d="M289.07,196.76a1.76,1.76,0,0,1,.3-1,.9.9,0,0,1,.8-.43h1.34v-4.85a.9.9,0,0,1,.42-.79,1.78,1.78,0,0,1,1-.27c1,0,1.5.35,1.5,1.06v4.85h6.3a.9.9,0,0,1,.79.41,1.82,1.82,0,0,1,.28,1c0,1-.36,1.49-1.07,1.49h-6.3v9.42q0,4.41,3.35,4.41a4,4,0,0,0,2.46-.79,3.23,3.23,0,0,0,1-2.76,1.09,1.09,0,0,1,.46-.9,1.68,1.68,0,0,1,1.08-.36,1.48,1.48,0,0,1,1,.34,1.16,1.16,0,0,1,.4,1,6.22,6.22,0,0,1-1.87,4.77,6.56,6.56,0,0,1-4.55,1.66q-6.27,0-6.27-8.4v-8.35h-1.34C289.44,198.21,289.07,197.73,289.07,196.76Z" transform="translate(-103.14 -67.91)"/><path class="cls-1" d="M306.36,204.59a9,9,0,0,1,1.11-4.49,8.46,8.46,0,0,1,2.91-3.11,14.46,14.46,0,0,1,3.9-1.71,16.08,16.08,0,0,1,4.26-.57,9.48,9.48,0,0,1,6,1.67,5.07,5.07,0,0,1,2.13,4.12,5.48,5.48,0,0,1-2.48,4.49q-2.48,1.84-7.05,1.85a25.45,25.45,0,0,1-7.8-1.18,7.75,7.75,0,0,0,2.72,4.88,8.28,8.28,0,0,0,5.63,2,13.14,13.14,0,0,0,3.68-.55,7.43,7.43,0,0,0,3-1.57.63.63,0,0,1,.63-.32,2,2,0,0,1,1.18.49,1.35,1.35,0,0,1,.63,1A6,6,0,0,1,323,214.5a17.88,17.88,0,0,1-5.54.93,10.78,10.78,0,0,1-11.07-10.84Zm3.12-2a18.3,18.3,0,0,0,7.32,1.3,10.1,10.1,0,0,0,5.2-1.09c1.19-.72,1.78-1.53,1.78-2.42a2.34,2.34,0,0,0-1.48-2,11.29,11.29,0,0,0-9.65.59A8.88,8.88,0,0,0,309.48,202.63Z" transform="translate(-103.14 -67.91)"/><path class="cls-1" d="M330.67,213.89V196.44c0-.71.5-1.06,1.5-1.06a1.78,1.78,0,0,1,1,.27.9.9,0,0,1,.42.79v4.92a14.89,14.89,0,0,1,3.32-4.88,7,7,0,0,1,4.87-1.65,17.18,17.18,0,0,1,4.29.55,1.67,1.67,0,0,1,1.14,1.49,1.33,1.33,0,0,1-.27.95,1.54,1.54,0,0,1-.91.35,15.25,15.25,0,0,0-3.27-.47,6.89,6.89,0,0,0-5.31,2.88,21.57,21.57,0,0,0-3.86,7.48v5.83a.94.94,0,0,1-.44.81,1.75,1.75,0,0,1-1,.29C331.16,215,330.67,214.63,330.67,213.89Z" transform="translate(-103.14 -67.91)"/><path class="cls-1" d="M350,214V196.36a.9.9,0,0,1,.42-.79,1.78,1.78,0,0,1,1-.27c1,0,1.5.35,1.5,1.06v3.11a14.31,14.31,0,0,1,4.76-3.36,13.88,13.88,0,0,1,5.68-1.25,8.79,8.79,0,0,1,6.2,2.31,7.79,7.79,0,0,1,2.5,6c0,.23,0,1.43,0,3.6s0,4.54,0,7.11a.93.93,0,0,1-.43.81,1.75,1.75,0,0,1-1,.29c-1,0-1.46-.36-1.46-1.1V203.53a5,5,0,0,0-2-4.29,6.77,6.77,0,0,0-4.12-1.5,11,11,0,0,0-5.89,1.91,10.26,10.26,0,0,0-4.19,4.83V214c0,.71-.5,1.06-1.5,1.06a1.78,1.78,0,0,1-1-.27A.9.9,0,0,1,350,214Z" transform="translate(-103.14 -67.91)"/><path class="cls-1" d="M375.62,207.83a12,12,0,0,1,4.13-9.1,13.47,13.47,0,0,1,9.38-3.83,8.06,8.06,0,0,1,6.11,2.72,8.86,8.86,0,0,1,2.52,6.19l0,10.32a.92.92,0,0,1-.5.81,2.08,2.08,0,0,1-1.08.29c-.87,0-1.3-.37-1.3-1.1v-6.66a25.67,25.67,0,0,1-6.09,6,10.94,10.94,0,0,1-6,1.85,6.72,6.72,0,0,1-5-2.3A7.41,7.41,0,0,1,375.62,207.83Zm2.83.07a4,4,0,0,0,1.58,3.41,5.52,5.52,0,0,0,3.35,1.16,8.1,8.1,0,0,0,4.69-2,21.13,21.13,0,0,0,4.39-4.54,7.74,7.74,0,0,0,1.75-3.92,3.44,3.44,0,0,0-.69-2.1,4.11,4.11,0,0,0-1.69-1.36,12.39,12.39,0,0,0-1.83-.65,5.52,5.52,0,0,0-1.38-.22,10.69,10.69,0,0,0-10.17,10.24Z" transform="translate(-103.14 -67.91)"/><path class="cls-1" d="M400.67,196.76a1.76,1.76,0,0,1,.3-1,.9.9,0,0,1,.8-.43h1.34v-4.85a.9.9,0,0,1,.42-.79,1.78,1.78,0,0,1,1-.27c1,0,1.5.35,1.5,1.06v4.85h6.3a.9.9,0,0,1,.79.41,1.82,1.82,0,0,1,.28,1c0,1-.36,1.49-1.07,1.49H406v9.42c0,2.94,1.11,4.41,3.35,4.41a4,4,0,0,0,2.46-.79,3.25,3.25,0,0,0,1-2.76,1.09,1.09,0,0,1,.46-.9,1.68,1.68,0,0,1,1.08-.36,1.48,1.48,0,0,1,1,.34,1.16,1.16,0,0,1,.4,1,6.22,6.22,0,0,1-1.87,4.77,6.56,6.56,0,0,1-4.55,1.66q-6.27,0-6.27-8.4v-8.35h-1.34C401,198.21,400.67,197.73,400.67,196.76Z" transform="translate(-103.14 -67.91)"/><path class="cls-1" d="M418.83,190.26v-.71c0-.71.5-1.07,1.5-1.07a1.78,1.78,0,0,1,1,.28.89.89,0,0,1,.42.79v.71a.91.91,0,0,1-.44.8,1.75,1.75,0,0,1-1,.3C419.32,191.36,418.83,191,418.83,190.26Zm0,23.63V196.36c0-.71.5-1.06,1.5-1.06a1.78,1.78,0,0,1,1,.27.9.9,0,0,1,.42.79v17.53a.94.94,0,0,1-.44.81,1.75,1.75,0,0,1-1,.29C419.32,215,418.83,214.63,418.83,213.89Z" transform="translate(-103.14 -67.91)"/><path class="cls-1" d="M425.61,205.23a9.63,9.63,0,0,1,1.79-5.85,10.47,10.47,0,0,1,4.33-3.57,13.4,13.4,0,0,1,5.34-1.1,10.7,10.7,0,0,1,7.27,3,9.64,9.64,0,0,1,3.33,7.51A10.29,10.29,0,0,1,437,215.59a11.49,11.49,0,0,1-8-3.06A9.52,9.52,0,0,1,425.61,205.23Zm2.91,0a6.82,6.82,0,0,0,2.56,5.11,8.65,8.65,0,0,0,5.95,2.3,7.34,7.34,0,0,0,5.46-2.32,7.24,7.24,0,0,0,2.26-5.16,7.59,7.59,0,0,0-2.16-5.16,7.18,7.18,0,0,0-5.6-2.41,8,8,0,0,0-6.24,2.44A7.62,7.62,0,0,0,428.52,205.26Z" transform="translate(-103.14 -67.91)"/><path class="cls-1" d="M451.53,214V196.36a.91.91,0,0,1,.41-.79,1.81,1.81,0,0,1,1-.27c1,0,1.49.35,1.49,1.06v3.11a14.25,14.25,0,0,1,4.77-3.36,13.8,13.8,0,0,1,5.67-1.25,8.81,8.81,0,0,1,6.21,2.31,7.82,7.82,0,0,1,2.5,6c0,.23,0,1.43,0,3.6s0,4.54,0,7.11a.94.94,0,0,1-.44.81,1.72,1.72,0,0,1-1,.29c-1,0-1.46-.36-1.46-1.1V203.53a5,5,0,0,0-2-4.29,6.75,6.75,0,0,0-4.11-1.5,11,11,0,0,0-5.89,1.91,10.28,10.28,0,0,0-4.2,4.83V214c0,.71-.5,1.06-1.49,1.06a1.81,1.81,0,0,1-1-.27A.91.91,0,0,1,451.53,214Z" transform="translate(-103.14 -67.91)"/><path class="cls-1" d="M477.17,207.83a12,12,0,0,1,4.14-9.1,13.43,13.43,0,0,1,9.37-3.83,8,8,0,0,1,6.11,2.72,8.86,8.86,0,0,1,2.52,6.19l0,10.32a.91.91,0,0,1-.49.81,2.14,2.14,0,0,1-1.09.29c-.86,0-1.3-.37-1.3-1.1v-6.66a25.47,25.47,0,0,1-6.08,6,11,11,0,0,1-6,1.85,6.69,6.69,0,0,1-5-2.3A7.37,7.37,0,0,1,477.17,207.83Zm2.84.07a4,4,0,0,0,1.57,3.41,5.52,5.52,0,0,0,3.35,1.16,8.08,8.08,0,0,0,4.69-2,20.89,20.89,0,0,0,4.39-4.54,7.74,7.74,0,0,0,1.75-3.92,3.49,3.49,0,0,0-.68-2.1,4.13,4.13,0,0,0-1.7-1.36,12.39,12.39,0,0,0-1.83-.65,5.39,5.39,0,0,0-1.38-.22A10.69,10.69,0,0,0,480,207.9Z" transform="translate(-103.14 -67.91)"/><path class="cls-1" d="M503.72,213.89V186.51c0-.71.5-1.06,1.5-1.06a1.71,1.71,0,0,1,1,.28.87.87,0,0,1,.42.78v27.38a.94.94,0,0,1-.44.81,1.75,1.75,0,0,1-1,.29C504.21,215,503.72,214.63,503.72,213.89Z" transform="translate(-103.14 -67.91)"/><path class="cls-1" d="M253.35,228.19a.58.58,0,0,1,.31-.47,1.06,1.06,0,0,1,.58-.21.49.49,0,0,1,.45.29l3.13,6.92,2.57-6.26.11-.29.11-.28.11-.19a.29.29,0,0,1,.16-.15.46.46,0,0,1,.21,0,.4.4,0,0,1,.22.08.78.78,0,0,1,.19.21,1.93,1.93,0,0,1,.13.24l.1.26a.88.88,0,0,1,.06.16l2.66,6.26,2.77-6.92a.49.49,0,0,1,.45-.29,1,1,0,0,1,.58.22.57.57,0,0,1,.29.46.54.54,0,0,1-.05.21l-3.27,7.93a1.09,1.09,0,0,1-.34.49.72.72,0,0,1-.43.18c-.3,0-.55-.22-.76-.67l-2.58-5.61-2.51,5.61a1.42,1.42,0,0,1-.35.48.69.69,0,0,1-.43.19c-.3,0-.56-.22-.77-.67l-3.65-7.93A.54.54,0,0,1,253.35,228.19Z" transform="translate(-103.14 -67.91)"/><path class="cls-1" d="M269.26,228.19a.59.59,0,0,1,.32-.47,1.06,1.06,0,0,1,.58-.21.49.49,0,0,1,.45.29l3.13,6.92,2.56-6.26a2,2,0,0,0,.12-.29,2.72,2.72,0,0,1,.11-.28l.1-.19a.3.3,0,0,1,.17-.15.45.45,0,0,1,.2,0,.37.37,0,0,1,.22.08.65.65,0,0,1,.19.21,2.1,2.1,0,0,1,.14.24l.1.26a.88.88,0,0,1,.06.16l2.65,6.26,2.77-6.92a.5.5,0,0,1,.46-.29,1,1,0,0,1,.58.22.6.6,0,0,1,.29.46.42.42,0,0,1-.06.21l-3.26,7.93a1.17,1.17,0,0,1-.34.49.72.72,0,0,1-.44.18c-.29,0-.54-.22-.76-.67L277,230.72l-2.5,5.61a1.57,1.57,0,0,1-.35.48.71.71,0,0,1-.43.19c-.3,0-.56-.22-.78-.67l-3.64-7.93A.42.42,0,0,1,269.26,228.19Z" transform="translate(-103.14 -67.91)"/><path class="cls-1" d="M285.18,228.19a.6.6,0,0,1,.31-.47,1.09,1.09,0,0,1,.58-.21.5.5,0,0,1,.46.29l3.13,6.92,2.56-6.26.11-.29a2.26,2.26,0,0,1,.12-.28s.06-.11.1-.19a.32.32,0,0,1,.16-.15.52.52,0,0,1,.21,0,.37.37,0,0,1,.22.08.78.78,0,0,1,.19.21,1.15,1.15,0,0,1,.13.24l.11.26c0,.09.05.15.05.16l2.66,6.26,2.77-6.92a.49.49,0,0,1,.45-.29.94.94,0,0,1,.58.22.59.59,0,0,1,.3.46.42.42,0,0,1-.06.21l-3.26,7.93a1.17,1.17,0,0,1-.34.49.74.74,0,0,1-.44.18c-.29,0-.54-.22-.76-.67l-2.58-5.61-2.5,5.61a1.57,1.57,0,0,1-.35.48.71.71,0,0,1-.43.19c-.3,0-.56-.22-.78-.67l-3.64-7.93A.42.42,0,0,1,285.18,228.19Z" transform="translate(-103.14 -67.91)"/><path class="cls-1" d="M301.38,236.09v-.5a.74.74,0,0,1,.35-.64,1.74,1.74,0,0,1,.94-.23,1.65,1.65,0,0,1,.88.23.71.71,0,0,1,.36.64v.5a.75.75,0,0,1-.38.66,1.56,1.56,0,0,1-.88.25,1.53,1.53,0,0,1-.93-.25A.78.78,0,0,1,301.38,236.09Z" transform="translate(-103.14 -67.91)"/><path class="cls-1" d="M305.78,235.19a.88.88,0,0,1,.25-.53,1.11,1.11,0,0,1,.57-.36c.1,0,.15,0,.15,0a3.82,3.82,0,0,0,1.71,1,8.26,8.26,0,0,0,1.74.43q.65.06,1.2.06c1.64,0,2.47-.5,2.47-1.5a1.06,1.06,0,0,0-.37-.83,2.18,2.18,0,0,0-1-.42,9.12,9.12,0,0,0-1.28-.15l-1.4-.07a7,7,0,0,1-1.16-.11,4.17,4.17,0,0,1-1.92-.91,2.09,2.09,0,0,1-.83-1.64,2.31,2.31,0,0,1,1.45-2.14,6.86,6.86,0,0,1,3.2-.75,8.82,8.82,0,0,1,2.52.41,3.84,3.84,0,0,1,2,1.26.24.24,0,0,1,0,.09,1.08,1.08,0,0,1-.23.58c-.15.22-.3.33-.43.33s-.26-.1-.38-.3c-.61-.64-1.82-1-3.63-1a6.25,6.25,0,0,0-2.12.36c-.67.24-1,.59-1,1.06s.29.69.87.89a6,6,0,0,0,1.86.29l1.18,0c.32,0,.7,0,1.16.11a4.1,4.1,0,0,1,1.14.3,4.92,4.92,0,0,1,.89.54,1.94,1.94,0,0,1,.65.88,3.33,3.33,0,0,1,.22,1.28,2.29,2.29,0,0,1-.6,1.62,3.2,3.2,0,0,1-1.36.92,5.19,5.19,0,0,1-1.63.25c-2.66,0-4.59-.57-5.76-1.71A.46.46,0,0,1,305.78,235.19Z" transform="translate(-103.14 -67.91)"/><path class="cls-1" d="M316.75,232a4.44,4.44,0,0,1,.53-2.17,4,4,0,0,1,1.41-1.49,6.68,6.68,0,0,1,1.87-.83,7.9,7.9,0,0,1,2.05-.27,4.58,4.58,0,0,1,2.89.8,2.45,2.45,0,0,1,1,2,2.64,2.64,0,0,1-1.2,2.17,5.59,5.59,0,0,1-3.39.89,12.27,12.27,0,0,1-3.76-.57,3.75,3.75,0,0,0,1.31,2.35,4,4,0,0,0,2.71,1,6.67,6.67,0,0,0,1.78-.26,3.55,3.55,0,0,0,1.45-.76.31.31,0,0,1,.3-.16.93.93,0,0,1,.57.24.67.67,0,0,1,.31.49,3,3,0,0,1-1.85,1.41,8.57,8.57,0,0,1-2.67.44,5.18,5.18,0,0,1-5.33-5.21Zm1.5-1a8.71,8.71,0,0,0,3.53.63,4.82,4.82,0,0,0,2.5-.53c.57-.34.86-.73.86-1.16a1.13,1.13,0,0,0-.72-1,5.44,5.44,0,0,0-4.64.28A4.27,4.27,0,0,0,318.25,231Z" transform="translate(-103.14 -67.91)"/><path class="cls-1" d="M328.45,236.47v-8.41c0-.34.24-.51.73-.51a.82.82,0,0,1,.48.13.44.44,0,0,1,.2.38v2.37a7.24,7.24,0,0,1,1.6-2.35,3.37,3.37,0,0,1,2.34-.8,8.17,8.17,0,0,1,2.07.27.81.81,0,0,1,.55.72.61.61,0,0,1-.13.45.75.75,0,0,1-.44.18,6.72,6.72,0,0,0-1.57-.23,3.32,3.32,0,0,0-2.56,1.38,10.65,10.65,0,0,0-1.86,3.61v2.81a.43.43,0,0,1-.21.38.81.81,0,0,1-.49.15C328.69,237,328.45,236.82,328.45,236.47Z" transform="translate(-103.14 -67.91)"/><path class="cls-1" d="M337,228.21a.6.6,0,0,1,.29-.49,1,1,0,0,1,.57-.21.49.49,0,0,1,.45.29l3.89,6.92,3.91-6.92a.49.49,0,0,1,.45-.29,1,1,0,0,1,.57.21.6.6,0,0,1,.29.49.32.32,0,0,1,0,.19l-4.4,7.93c-.22.45-.48.67-.78.67s-.54-.22-.76-.67L337,228.4A.32.32,0,0,1,337,228.21Z" transform="translate(-103.14 -67.91)"/><path class="cls-1" d="M348.92,225.08v-.34c0-.34.25-.51.73-.51a.82.82,0,0,1,.48.13.44.44,0,0,1,.2.38v.34a.44.44,0,0,1-.21.39.81.81,0,0,1-.49.14C349.16,225.61,348.92,225.44,348.92,225.08Zm0,11.39V228c0-.34.25-.51.73-.51a.82.82,0,0,1,.48.13.44.44,0,0,1,.2.38v8.45a.43.43,0,0,1-.21.38.81.81,0,0,1-.49.15C349.16,237,348.92,236.82,348.92,236.47Z" transform="translate(-103.14 -67.91)"/><path class="cls-1" d="M352.19,232.29a4.63,4.63,0,0,1,.87-2.82,5,5,0,0,1,2.11-1.71,6.34,6.34,0,0,1,2.58-.53,5,5,0,0,1,3.16,1.17.41.41,0,0,1,.16.34.8.8,0,0,1-.25.56.72.72,0,0,1-.51.26.44.44,0,0,1-.33-.13,3.31,3.31,0,0,0-2.27-.8,3.92,3.92,0,0,0-3,1.18,3.66,3.66,0,0,0-1.09,2.5,3.26,3.26,0,0,0,1.25,2.46,4.24,4.24,0,0,0,2.89,1.11,3.43,3.43,0,0,0,2.71-1.2.57.57,0,0,1,.36-.21.77.77,0,0,1,.55.29.82.82,0,0,1,.27.55.42.42,0,0,1-.14.3,4.66,4.66,0,0,1-3.66,1.67,5.78,5.78,0,0,1-4-1.47A4.55,4.55,0,0,1,352.19,232.29Z" transform="translate(-103.14 -67.91)"/><path class="cls-1" d="M362.62,232a4.44,4.44,0,0,1,.53-2.17,4.13,4.13,0,0,1,1.41-1.49,6.61,6.61,0,0,1,1.88-.83,7.83,7.83,0,0,1,2-.27,4.56,4.56,0,0,1,2.89.8,2.45,2.45,0,0,1,1,2,2.66,2.66,0,0,1-1.19,2.17,5.64,5.64,0,0,1-3.4.89,12.21,12.21,0,0,1-3.75-.57,3.69,3.69,0,0,0,1.3,2.35,4,4,0,0,0,2.72,1,6.6,6.6,0,0,0,1.77-.26,3.55,3.55,0,0,0,1.45-.76.31.31,0,0,1,.31-.16,1,1,0,0,1,.57.24.65.65,0,0,1,.3.49,2.94,2.94,0,0,1-1.85,1.41,8.57,8.57,0,0,1-2.67.44,5.18,5.18,0,0,1-5.33-5.21Zm1.5-1a8.74,8.74,0,0,0,3.53.63,4.79,4.79,0,0,0,2.5-.53c.57-.34.86-.73.86-1.16a1.13,1.13,0,0,0-.71-1,4.54,4.54,0,0,0-2.12-.39,4.48,4.48,0,0,0-2.53.67A4.27,4.27,0,0,0,364.12,231Z" transform="translate(-103.14 -67.91)"/><path class="cls-1" d="M373.59,228.21a.59.59,0,0,1,.28-.49,1,1,0,0,1,.57-.21.5.5,0,0,1,.46.29l3.89,6.92,3.9-6.92a.51.51,0,0,1,.46-.29,1,1,0,0,1,.57.21.59.59,0,0,1,.28.49.32.32,0,0,1,0,.19l-4.4,7.93c-.21.45-.47.67-.77.67s-.55-.22-.76-.67l-4.4-7.93A.32.32,0,0,1,373.59,228.21Z" transform="translate(-103.14 -67.91)"/><path class="cls-1" d="M385,232.29a4.69,4.69,0,0,1,.86-2.82,5.09,5.09,0,0,1,2.09-1.71,6.29,6.29,0,0,1,2.57-.53,5.12,5.12,0,0,1,3.5,1.43,4.63,4.63,0,0,1,1.61,3.61,5,5,0,0,1-5.15,5,5.56,5.56,0,0,1-3.87-1.47A4.61,4.61,0,0,1,385,232.29Zm1.41,0a3.27,3.27,0,0,0,1.23,2.46,4.15,4.15,0,0,0,2.86,1.11,3.56,3.56,0,0,0,2.63-1.12,3.49,3.49,0,0,0,1.09-2.49,3.67,3.67,0,0,0-1-2.48,3.49,3.49,0,0,0-2.7-1.16,3.82,3.82,0,0,0-3,1.18A3.64,3.64,0,0,0,386.36,232.31Z" transform="translate(-103.14 -67.91)"/><path class="cls-1" d="M397.43,236.47V223.28c0-.34.24-.51.73-.51a.84.84,0,0,1,.48.13.44.44,0,0,1,.2.38v13.19a.43.43,0,0,1-.21.38.81.81,0,0,1-.49.15C397.67,237,397.43,236.82,397.43,236.47Z" transform="translate(-103.14 -67.91)"/><path class="cls-1" d="M400.7,232.29a4.69,4.69,0,0,1,.86-2.82,5,5,0,0,1,2.09-1.71,6.26,6.26,0,0,1,2.57-.53,5.13,5.13,0,0,1,3.5,1.43,4.62,4.62,0,0,1,1.6,3.61,4.9,4.9,0,0,1-1.42,3.54,5,5,0,0,1-3.72,1.47,5.53,5.53,0,0,1-3.87-1.47A4.61,4.61,0,0,1,400.7,232.29Zm1.4,0a3.25,3.25,0,0,0,1.24,2.46,4.13,4.13,0,0,0,2.86,1.11,3.58,3.58,0,0,0,2.63-1.12,3.53,3.53,0,0,0,1.09-2.49,3.64,3.64,0,0,0-1.05-2.48,3.45,3.45,0,0,0-2.69-1.16,3.86,3.86,0,0,0-3,1.18A3.68,3.68,0,0,0,402.1,232.31Z" transform="translate(-103.14 -67.91)"/><path class="cls-1" d="M413.18,236.5V228a.44.44,0,0,1,.2-.38.82.82,0,0,1,.48-.13q.72,0,.72.51v1.5a7,7,0,0,1,2.3-1.62,6.67,6.67,0,0,1,2.73-.6,4.24,4.24,0,0,1,3,1.11,3.76,3.76,0,0,1,1.2,2.89V233c0,1,0,2.19,0,3.43a.43.43,0,0,1-.21.38.84.84,0,0,1-.5.15c-.46,0-.7-.18-.7-.53v-5a2.43,2.43,0,0,0-1-2.07,3.24,3.24,0,0,0-2-.72,5.26,5.26,0,0,0-2.84.92,4.94,4.94,0,0,0-2,2.32v4.57c0,.34-.24.52-.72.52a.83.83,0,0,1-.48-.14A.43.43,0,0,1,413.18,236.5Z" transform="translate(-103.14 -67.91)"/><path class="cls-1" d="M425.27,228.21a.81.81,0,0,1,.14-.49.44.44,0,0,1,.39-.21h.64v-2.33a.43.43,0,0,1,.2-.38.83.83,0,0,1,.48-.14c.48,0,.73.18.73.52v2.33h3a.43.43,0,0,1,.38.2.82.82,0,0,1,.13.48q0,.72-.51.72h-3v4.54c0,1.42.53,2.12,1.61,2.12a1.85,1.85,0,0,0,1.18-.38,1.54,1.54,0,0,0,.51-1.32.54.54,0,0,1,.21-.44.86.86,0,0,1,.53-.17.69.69,0,0,1,.47.16.57.57,0,0,1,.19.47,3,3,0,0,1-.9,2.29,3.16,3.16,0,0,1-2.19.8q-3,0-3-4v-4h-.64C425.44,228.91,425.27,228.68,425.27,228.21Z" transform="translate(-103.14 -67.91)"/><path class="cls-1" d="M433.59,233.54a5.78,5.78,0,0,1,2-4.38,6.44,6.44,0,0,1,4.51-1.84,3.88,3.88,0,0,1,2.94,1.31,4.27,4.27,0,0,1,1.22,3l0,5a.45.45,0,0,1-.24.39,1,1,0,0,1-.52.14c-.42,0-.63-.18-.63-.53v-3.21a12.32,12.32,0,0,1-2.93,2.89,5.31,5.31,0,0,1-2.87.89,3.21,3.21,0,0,1-2.41-1.11A3.54,3.54,0,0,1,433.59,233.54Zm1.37,0a1.9,1.9,0,0,0,.76,1.64,2.61,2.61,0,0,0,1.61.56,3.85,3.85,0,0,0,2.26-1,9.65,9.65,0,0,0,2.11-2.18,3.7,3.7,0,0,0,.85-1.88,1.68,1.68,0,0,0-.33-1,2,2,0,0,0-.82-.65,6.44,6.44,0,0,0-.88-.32,2.71,2.71,0,0,0-.67-.1,5.16,5.16,0,0,0-4.89,4.93Z" transform="translate(-103.14 -67.91)"/><path class="cls-1" d="M446.38,225.08v-.34q0-.51.72-.51a.88.88,0,0,1,.49.13.44.44,0,0,1,.19.38v.34a.45.45,0,0,1-.2.39.84.84,0,0,1-.5.14C446.61,225.61,446.38,225.44,446.38,225.08Zm0,11.39V228q0-.51.72-.51a.88.88,0,0,1,.49.13.44.44,0,0,1,.19.38v8.45a.44.44,0,0,1-.2.38.84.84,0,0,1-.5.15C446.61,237,446.38,236.82,446.38,236.47Z" transform="translate(-103.14 -67.91)"/><path class="cls-1" d="M450,236.47v-8.41q0-.51.72-.51a.88.88,0,0,1,.49.13.44.44,0,0,1,.2.38v2.37a7.24,7.24,0,0,1,1.6-2.35,3.37,3.37,0,0,1,2.34-.8,8.23,8.23,0,0,1,2.07.27.81.81,0,0,1,.55.72.61.61,0,0,1-.13.45.78.78,0,0,1-.44.18,6.72,6.72,0,0,0-1.57-.23,3.32,3.32,0,0,0-2.56,1.38,10.31,10.31,0,0,0-1.86,3.61v2.81a.43.43,0,0,1-.21.38.84.84,0,0,1-.5.15C450.28,237,450,236.82,450,236.47Z" transform="translate(-103.14 -67.91)"/><path class="cls-1" d="M458.69,232a4.44,4.44,0,0,1,.53-2.17,4.13,4.13,0,0,1,1.41-1.49,6.74,6.74,0,0,1,1.88-.83,7.83,7.83,0,0,1,2-.27,4.56,4.56,0,0,1,2.89.8,2.45,2.45,0,0,1,1,2,2.66,2.66,0,0,1-1.19,2.17,5.64,5.64,0,0,1-3.4.89,12.21,12.21,0,0,1-3.75-.57,3.69,3.69,0,0,0,1.3,2.35,4,4,0,0,0,2.72,1,6.6,6.6,0,0,0,1.77-.26,3.55,3.55,0,0,0,1.45-.76.31.31,0,0,1,.31-.16,1,1,0,0,1,.57.24.65.65,0,0,1,.3.49,2.94,2.94,0,0,1-1.85,1.41,8.57,8.57,0,0,1-2.67.44,5.18,5.18,0,0,1-5.33-5.21Zm1.5-1a8.74,8.74,0,0,0,3.53.63,4.79,4.79,0,0,0,2.5-.53c.57-.34.86-.73.86-1.16a1.13,1.13,0,0,0-.71-1,4.54,4.54,0,0,0-2.12-.39,4.48,4.48,0,0,0-2.53.67A4.27,4.27,0,0,0,460.19,231Z" transform="translate(-103.14 -67.91)"/><path class="cls-1" d="M470.42,236.09v-.5a.72.72,0,0,1,.35-.64,1.7,1.7,0,0,1,.94-.23,1.61,1.61,0,0,1,.87.23.71.71,0,0,1,.36.64v.5a.75.75,0,0,1-.38.66,1.51,1.51,0,0,1-.87.25,1.53,1.53,0,0,1-.93-.25A.76.76,0,0,1,470.42,236.09Z" transform="translate(-103.14 -67.91)"/><path class="cls-1" d="M474.8,232.29a4.69,4.69,0,0,1,.86-2.82,5,5,0,0,1,2.09-1.71,6.26,6.26,0,0,1,2.57-.53,5.13,5.13,0,0,1,3.5,1.43,4.62,4.62,0,0,1,1.6,3.61,4.9,4.9,0,0,1-1.42,3.54,5,5,0,0,1-3.72,1.47,5.56,5.56,0,0,1-3.87-1.47A4.61,4.61,0,0,1,474.8,232.29Zm1.4,0a3.25,3.25,0,0,0,1.24,2.46,4.13,4.13,0,0,0,2.86,1.11,3.56,3.56,0,0,0,2.63-1.12,3.49,3.49,0,0,0,1.09-2.49,3.67,3.67,0,0,0-1-2.48,3.49,3.49,0,0,0-2.7-1.16,3.86,3.86,0,0,0-3,1.18A3.68,3.68,0,0,0,476.2,232.31Z" transform="translate(-103.14 -67.91)"/><path class="cls-1" d="M487.26,236.47v-8.41q0-.51.72-.51a.85.85,0,0,1,.49.13.44.44,0,0,1,.2.38v2.37a7.24,7.24,0,0,1,1.6-2.35,3.37,3.37,0,0,1,2.34-.8,8.17,8.17,0,0,1,2.07.27.81.81,0,0,1,.55.72.61.61,0,0,1-.13.45.75.75,0,0,1-.44.18,6.72,6.72,0,0,0-1.57-.23,3.32,3.32,0,0,0-2.56,1.38,10.65,10.65,0,0,0-1.86,3.61v2.81a.43.43,0,0,1-.21.38.81.81,0,0,1-.49.15C487.5,237,487.26,236.82,487.26,236.47Z" transform="translate(-103.14 -67.91)"/><path class="cls-1" d="M495.46,233.54a5.77,5.77,0,0,1,2-4.38,6.46,6.46,0,0,1,4.52-1.84,3.86,3.86,0,0,1,2.75,1.12V228q0-.51.72-.51a.9.9,0,0,1,.48.13.44.44,0,0,1,.2.38v9.09a4.38,4.38,0,0,1-1.44,3.48,4.94,4.94,0,0,1-3.36,1.26,5.4,5.4,0,0,1-2.54-.53,1.86,1.86,0,0,1-1-1.76.58.58,0,0,1,.19-.47.72.72,0,0,1,.47-.16.83.83,0,0,1,.52.17.53.53,0,0,1,.22.44.75.75,0,0,0,.18.52,1,1,0,0,0,.58.28,5,5,0,0,0,.69.09l.83,0a3.48,3.48,0,0,0,2.32-.82,2.94,2.94,0,0,0,1-2.39v-3.85a12.5,12.5,0,0,1-2.93,2.89,5.31,5.31,0,0,1-2.88.89A3.23,3.23,0,0,1,496.5,236,3.57,3.57,0,0,1,495.46,233.54Zm1.37,0a1.92,1.92,0,0,0,.75,1.64,2.65,2.65,0,0,0,1.62.56,3.83,3.83,0,0,0,2.25-1,9.7,9.7,0,0,0,2.12-2.18,3.76,3.76,0,0,0,.84-1.88,1.68,1.68,0,0,0-.33-1,2,2,0,0,0-.81-.65,6.53,6.53,0,0,0-.89-.32,2.58,2.58,0,0,0-.66-.1,4.74,4.74,0,0,0-3.38,1.49A4.68,4.68,0,0,0,496.83,233.58Z" transform="translate(-103.14 -67.91)"/></svg>