<svg id="Layer_1" data-name="Layer 1" xmlns="http://www.w3.org/2000/svg" viewBox="0 0 167.7 189.27"><defs><style>.cls-1{fill:#fff;}</style></defs><title>SVI circle (White) no asbl</title><path class="cls-1" d="M117.4,83.92a33.93,33.93,0,0,0,4.24-.16c6.33-.63,12.72-4.61,13.7-12.34a33.64,33.64,0,0,0,0-9c-1.22-8.28-7-11.88-15-9.55a31.59,31.59,0,0,0-6.5,2.69C101.56,62.36,92.1,72.12,84.57,83.89a6,6,0,0,0-.47,6.28c1.53,3.07,3.11,6.12,4.91,9,8.36,13.5,16.9,26.88,25.16,40.44,4.41,7.24,8.32,14.79,10.26,23.14,1.31,5.63,1.32,11.12-2.74,15.85-2.25,2.62-4.82,3.4-8,2a22.31,22.31,0,0,1-5.29-3.26c-4.38-3.67-8.1-7.87-9.83-13.51-.49-1.58-1.43-2.95-3.38-3a5,5,0,0,0-4.8,2.42,8.24,8.24,0,0,0-1.12,3.31,11.31,11.31,0,0,0,1.54,5.49c4.69,9.67,12.45,16.3,21.91,21,5.82,2.85,11.68,2.65,16.84-1.68A24.31,24.31,0,0,0,138,176.78c1.06-5.63.11-11.13-1.46-16.53-3.4-11.75-9.36-22.29-15.67-32.63-5.53-9.08-11.31-18-16.86-27.07A15,15,0,0,1,102.74,87c.92-2.47,2.61-3.83,5.39-3.62C111.22,83.59,114.31,83.74,117.4,83.92Zm59.92,35.76a167.4,167.4,0,0,1-5,44.58c-1.28,5-2.77,9.85-5.76,14.11-2.16,3.08-4.95,3.3-7.61.61a11.47,11.47,0,0,1-2.33-3.25,40.59,40.59,0,0,1-2.5-6.78c-3.76-15-4.9-30.24-4.51-45.63.08-2.89.22-5.79.19-8.68s-1.7-5.22-3.83-5.84-5,.58-6.53,3a10.45,10.45,0,0,0-1.31,7c1,11.12,2,22.24,3.11,33.34,1.14,11.35,3.16,22.54,7.78,33a61,61,0,0,0,6.22,10.52,5.71,5.71,0,0,0,7.21,2.06,24.23,24.23,0,0,0,6.68-3.91c5.25-4.75,8.29-11,9.94-17.71a267.84,267.84,0,0,0,5.62-28,183.91,183.91,0,0,0,1.91-27.53c-.2-13.36-1.27-26.72-2.25-40.06a155.13,155.13,0,0,0-2.41-16.14,6.19,6.19,0,0,0-2.08-3.71,37.78,37.78,0,0,0-8.39-4.78,3.06,3.06,0,0,0-3,.94,10.63,10.63,0,0,0-1.76,8.65c.26,1,1.69,2.32,2.56,2.3,2.23,0,2.77,1.32,3.28,2.86a32.36,32.36,0,0,1,1,3.91C176.5,89.43,177.15,104.54,177.32,119.68Zm25,4.9a88.58,88.58,0,0,1-16.43,48.13,21.62,21.62,0,0,0-2.91,5.7c-.87,2.73.61,4.18,3.48,4.08s4.41-2.1,6.08-3.91c21.91-23.73,26.21-59.2,13.07-87.55A15.3,15.3,0,0,0,203,87.26a3.73,3.73,0,0,0-4.47-.8,6.74,6.74,0,0,0-3.36,8.93C199.27,104.46,202.13,113.86,202.31,124.58ZM114.16,47.75c-.27-3.56-1.19-6.88-3.92-9.4-2-1.86-4-1.27-4.65,1.4-.9,3.62.22,6.91,2.14,9.94,1,1.55,2.26,3.17,4.36,2.51S114.16,49.6,114.16,47.75ZM93.41,50.32a11.09,11.09,0,0,0,4,8.92,3.45,3.45,0,0,0,2.87.62c.65-.24,1.21-1.55,1.26-2.43A10.3,10.3,0,0,0,98.15,49,3.91,3.91,0,0,0,95,48,2.81,2.81,0,0,0,93.41,50.32ZM91.32,67.23c.13-2.17-1.63-6.18-4.23-7.93A3,3,0,0,0,84.53,59a3,3,0,0,0-1,2.39,9.58,9.58,0,0,0,4,7.31,3.1,3.1,0,0,0,2.57.42A2.39,2.39,0,0,0,91.32,67.23Zm-14.56,7a7.49,7.49,0,0,0,3.44,5.51c1.64,1,2.87.38,2.78-1.5a7.32,7.32,0,0,0-3.52-6C77.89,71.23,76.52,72.15,76.76,74.24Z" transform="translate(-68.15 -26.34)"/><path class="cls-1" d="M131.44,38.07a13.65,13.65,0,0,1-1.52,6.32c-1.38,2.66-4,2.93-6.26,1-4-3.37-5.19-12.73-2.21-17,1.67-2.42,4.22-2.71,6.35-.64C130.7,30.54,131.19,33.73,131.44,38.07Z" transform="translate(-68.15 -26.34)"/><path class="cls-1" d="M68.32,178.71a1,1,0,0,1,.52-.2.53.53,0,0,1,.49.16.15.15,0,0,1,.06.11,5.24,5.24,0,0,0,.33,2.06,5.61,5.61,0,0,0,1.09,2c1.33,1.49,2.49,1.8,3.48.91a1.5,1.5,0,0,0,.54-1,2.64,2.64,0,0,0-.25-1.27,12.41,12.41,0,0,0-.7-1.35c-.27-.45-.52-.92-.77-1.4a7,7,0,0,1-.57-1.42,2.52,2.52,0,0,1,0-1.44,3,3,0,0,1,.91-1.37,2.42,2.42,0,0,1,2.45-.51,5.55,5.55,0,0,1,2.53,1.71,7.09,7.09,0,0,1,1.35,2.17A3.57,3.57,0,0,1,80,180,.13.13,0,0,1,80,180a.55.55,0,0,1-.48.07.9.9,0,0,1-.49-.23,1.14,1.14,0,0,1-.07-.21,4.94,4.94,0,0,0-1.37-3.17,4.74,4.74,0,0,0-1.72-1.27,1.46,1.46,0,0,0-1.62.23,1.35,1.35,0,0,0-.48,1,2.21,2.21,0,0,0,.29,1.17c.2.39.44.82.7,1.28s.53.95.78,1.46a7.61,7.61,0,0,1,.56,1.49,2.58,2.58,0,0,1,0,1.48,3.1,3.1,0,0,1-1,1.41q-2.33,2.07-5.06-1a7.39,7.39,0,0,1-1.39-2.28,5.45,5.45,0,0,1-.42-2.45A.4.4,0,0,1,68.32,178.71Z" transform="translate(-68.15 -26.34)"/><path class="cls-1" d="M77.23,185.11A3.81,3.81,0,0,1,78.85,184a3.58,3.58,0,0,1,1.8-.16,6.17,6.17,0,0,1,1.72.55,7.07,7.07,0,0,1,1.51,1,4,4,0,0,1,1.43,2.22,2.15,2.15,0,0,1-.49,1.9,2.35,2.35,0,0,1-2.06.73A5,5,0,0,1,80,188.86a10.89,10.89,0,0,1-2.14-2.58,3.3,3.3,0,0,0-.51,2.32,3.57,3.57,0,0,0,1.22,2.22,5.74,5.74,0,0,0,1.33.86,3.14,3.14,0,0,0,1.4.35.29.29,0,0,1,.29.08.87.87,0,0,1,.23.49.6.6,0,0,1-.08.5,2.55,2.55,0,0,1-2-.16,7.26,7.26,0,0,1-2-1.27,4.55,4.55,0,0,1-.45-6.56Zm1.54.26a7.75,7.75,0,0,0,2,2.48,4.24,4.24,0,0,0,2,1.12,1.28,1.28,0,0,0,1.25-.26,1,1,0,0,0,.09-1.05,4,4,0,0,0-1.16-1.5,4,4,0,0,0-2.07-1A3.76,3.76,0,0,0,78.77,185.37Z" transform="translate(-68.15 -26.34)"/><path class="cls-1" d="M82.94,195.24l4.33-6q.27-.37.78,0a.72.72,0,0,1,.28.35.38.38,0,0,1,0,.37l-1.23,1.7a6.36,6.36,0,0,1,2.37-.86,2.94,2.94,0,0,1,2.08.64,6.92,6.92,0,0,1,1.34,1.26.71.71,0,0,1,0,.8.52.52,0,0,1-.33.25.61.61,0,0,1-.4-.1,6.38,6.38,0,0,0-1-1,3,3,0,0,0-2.55-.33A9.35,9.35,0,0,0,85.39,194l-1.45,2a.39.39,0,0,1-.35.17.82.82,0,0,1-.42-.15C82.83,195.74,82.75,195.5,82.94,195.24Z" transform="translate(-68.15 -26.34)"/><path class="cls-1" d="M93.24,193.72a.5.5,0,0,1,.43-.25.77.77,0,0,1,.53.09.43.43,0,0,1,.22.42l-.08,7,6-3.57a.42.42,0,0,1,.47,0,.88.88,0,0,1,.34.41.51.51,0,0,1,0,.51c0,.06-.07.11-.11.12l-6.85,4.12c-.36.25-.66.3-.89.17s-.32-.41-.29-.84l.13-8A.35.35,0,0,1,93.24,193.72Z" transform="translate(-68.15 -26.34)"/><path class="cls-1" d="M99.25,205.34l3.23-6.71c.13-.27.38-.32.77-.13a.73.73,0,0,1,.33.29.38.38,0,0,1,0,.37l-3.22,6.71a.41.41,0,0,1-.32.23.81.81,0,0,1-.45-.07C99.23,205.85,99.11,205.62,99.25,205.34Zm4.35-9.05.13-.27c.13-.27.39-.32.77-.13a.73.73,0,0,1,.33.29.39.39,0,0,1,0,.38l-.13.27a.43.43,0,0,1-.32.23A.77.77,0,0,1,104,197Q103.39,196.71,103.6,196.29Z" transform="translate(-68.15 -26.34)"/><path class="cls-1" d="M103.59,203.4a4.08,4.08,0,0,1,1.63-2,4.51,4.51,0,0,1,2.29-.73,5.75,5.75,0,0,1,2.28.4,4.37,4.37,0,0,1,2.22,2,.38.38,0,0,1,0,.33.77.77,0,0,1-.88.43.37.37,0,0,1-.22-.22,3,3,0,0,0-1.61-1.39,3.5,3.5,0,0,0-2.87,0,3.2,3.2,0,0,0-1.7,1.7,2.85,2.85,0,0,0,.23,2.42,3.69,3.69,0,0,0,2,1.85,3,3,0,0,0,2.61-.1.47.47,0,0,1,.37,0,.68.68,0,0,1,.36.41.77.77,0,0,1,0,.53.36.36,0,0,1-.21.21,4.1,4.1,0,0,1-3.55.18,5.13,5.13,0,0,1-2.79-2.5A4,4,0,0,1,103.59,203.4Z" transform="translate(-68.15 -26.34)"/><path class="cls-1" d="M112.56,206.59a3.77,3.77,0,0,1,1-1.71,3.65,3.65,0,0,1,1.55-.95,6,6,0,0,1,1.78-.27,7.32,7.32,0,0,1,1.81.25,4.07,4.07,0,0,1,2.27,1.35,2.19,2.19,0,0,1,.41,1.93,2.34,2.34,0,0,1-1.52,1.56,5,5,0,0,1-3.1,0,10.86,10.86,0,0,1-3.06-1.36,3.34,3.34,0,0,0,.56,2.31,3.59,3.59,0,0,0,2.09,1.43,5.28,5.28,0,0,0,1.57.19,3.13,3.13,0,0,0,1.41-.31.3.3,0,0,1,.3-.06.87.87,0,0,1,.42.34.55.55,0,0,1,.15.48,2.55,2.55,0,0,1-1.9.77,7.58,7.58,0,0,1-2.37-.24,4.51,4.51,0,0,1-2.91-2.2A4.45,4.45,0,0,1,112.56,206.59Zm1.49-.46a7.7,7.7,0,0,0,2.86,1.36,4.28,4.28,0,0,0,2.25.14c.56-.17.9-.43,1-.8a1,1,0,0,0-.39-1,4,4,0,0,0-1.7-.82,4,4,0,0,0-2.31,0A3.9,3.9,0,0,0,114.05,206.13Z" transform="translate(-68.15 -26.34)"/><path class="cls-1" d="M127,203.3a.55.55,0,0,1,.3-.41.94.94,0,0,1,.52-.13.44.44,0,0,1,.37.3l2.58,9.77,4.59-9a.42.42,0,0,1,.42-.21.83.83,0,0,1,.48.23.52.52,0,0,1,.21.46.77.77,0,0,1,0,.17l-5,9.86a1,1,0,0,1-.39.38.8.8,0,0,1-.43.12.75.75,0,0,1-.4-.2,1.07,1.07,0,0,1-.32-.46l-2.82-10.7A.59.59,0,0,1,127,203.3Z" transform="translate(-68.15 -26.34)"/><path class="cls-1" d="M136.44,211.29a4.15,4.15,0,0,1,.72-2.49,4.49,4.49,0,0,1,1.82-1.55,5.64,5.64,0,0,1,2.26-.5,4.5,4.5,0,0,1,3.1,1.21,4.08,4.08,0,0,1,1.47,3.16,4.36,4.36,0,0,1-4.46,4.49,4.91,4.91,0,0,1-3.44-1.24A4.06,4.06,0,0,1,136.44,211.29Zm1.24,0a2.89,2.89,0,0,0,1.12,2.15,3.65,3.65,0,0,0,2.54.93,3.12,3.12,0,0,0,2.31-1,3.08,3.08,0,0,0,.92-2.21,3.21,3.21,0,0,0-.95-2.17,3.06,3.06,0,0,0-2.4-1,3.35,3.35,0,0,0-2.63,1.08A3.24,3.24,0,0,0,137.68,211.29Z" transform="translate(-68.15 -26.34)"/><path class="cls-1" d="M148,214.63,147,203c0-.3.17-.47.6-.5a.68.68,0,0,1,.43.08.38.38,0,0,1,.2.32l1,11.58a.39.39,0,0,1-.16.36.74.74,0,0,1-.42.16C148.22,215.07,148,214.94,148,214.63Z" transform="translate(-68.15 -26.34)"/><path class="cls-1" d="M150.8,210.79a4.07,4.07,0,0,1,.35-2.58,4.5,4.5,0,0,1,1.57-1.79,5.57,5.57,0,0,1,2.16-.82,4.52,4.52,0,0,1,3.25.75,4.09,4.09,0,0,1,1.91,2.92,4.36,4.36,0,0,1-3.77,5.08,4.84,4.84,0,0,1-3.57-.73A4,4,0,0,1,150.8,210.79Zm1.22-.18a2.89,2.89,0,0,0,1.42,2,3.66,3.66,0,0,0,2.65.56,3.09,3.09,0,0,0,2.13-1.35,3,3,0,0,0,.6-2.31,3.27,3.27,0,0,0-1.26-2,3.05,3.05,0,0,0-2.51-.62,3.4,3.4,0,0,0-2.45,1.44A3.29,3.29,0,0,0,152,210.61Z" transform="translate(-68.15 -26.34)"/><path class="cls-1" d="M163.06,212.39,161,205.22a.38.38,0,0,1,.07-.37.77.77,0,0,1,.38-.23c.41-.12.65,0,.74.25l.37,1.27a6,6,0,0,1,1.54-1.94,5.76,5.76,0,0,1,2.16-1.19,3.74,3.74,0,0,1,2.8.19,3.3,3.3,0,0,1,1.74,2.15l.43,1.47c.25.89.53,1.85.84,2.9a.38.38,0,0,1-.08.38.66.66,0,0,1-.38.24c-.39.12-.64,0-.73-.27l-1.24-4.22a2.13,2.13,0,0,0-1.32-1.51,2.87,2.87,0,0,0-1.86-.12,4.7,4.7,0,0,0-2.17,1.49,4.33,4.33,0,0,0-1.13,2.47l1.14,3.86c.08.29-.08.5-.48.62a.77.77,0,0,1-.45,0A.39.39,0,0,1,163.06,212.39Z" transform="translate(-68.15 -26.34)"/><path class="cls-1" d="M171.07,202.26a.78.78,0,0,1,0-.45.4.4,0,0,1,.25-.3l.52-.21-.78-1.91a.37.37,0,0,1,0-.37.74.74,0,0,1,.35-.27c.4-.17.65-.11.76.17l.79,1.9,2.47-1a.4.4,0,0,1,.38,0,.69.69,0,0,1,.27.35c.16.39.1.64-.18.76l-2.47,1,1.52,3.7c.48,1.15,1.16,1.55,2,1.19a1.74,1.74,0,0,0,.84-.71,1.35,1.35,0,0,0,0-1.25.5.5,0,0,1,0-.43.75.75,0,0,1,.36-.32.61.61,0,0,1,.44,0,.51.51,0,0,1,.32.31,2.65,2.65,0,0,1,0,2.17,2.71,2.71,0,0,1-1.52,1.39q-2.46,1-3.81-2.28l-1.35-3.28-.53.22C171.45,202.78,171.23,202.65,171.07,202.26Z" transform="translate(-68.15 -26.34)"/><path class="cls-1" d="M180.05,203.66a5.12,5.12,0,0,1-.29-4.24,5.73,5.73,0,0,1,2.74-3.32,3.41,3.41,0,0,1,2.83-.21,3.8,3.8,0,0,1,2.19,1.8l2.06,3.87a.39.39,0,0,1,0,.4.9.9,0,0,1-.34.33c-.33.17-.56.13-.71-.15l-1.34-2.49a11,11,0,0,1-1.07,3.47,4.7,4.7,0,0,1-1.86,1.89,2.87,2.87,0,0,1-2.34.15A3.18,3.18,0,0,1,180.05,203.66Zm1.08-.55a1.68,1.68,0,0,0,1.27,1,2.34,2.34,0,0,0,1.49-.24,3.37,3.37,0,0,0,1.34-1.7,8.64,8.64,0,0,0,.73-2.58,3.34,3.34,0,0,0-.13-1.82,1.52,1.52,0,0,0-.68-.65,1.71,1.71,0,0,0-.91-.16,4.6,4.6,0,0,0-.82.12,2.39,2.39,0,0,0-.56.2,4.15,4.15,0,0,0-2,2.57A4.09,4.09,0,0,0,181.13,203.11Z" transform="translate(-68.15 -26.34)"/><path class="cls-1" d="M186.1,191.66l-.16-.25c-.17-.25-.07-.49.29-.72a.7.7,0,0,1,.42-.14.39.39,0,0,1,.33.19l.16.25a.39.39,0,0,1,0,.39.72.72,0,0,1-.29.34C186.53,191.94,186.27,191.93,186.1,191.66Zm5.46,8.43-4.05-6.25c-.16-.25-.07-.5.29-.73a.76.76,0,0,1,.42-.13.37.37,0,0,1,.33.19l4,6.24a.39.39,0,0,1,0,.39.75.75,0,0,1-.3.34C192,200.37,191.73,200.35,191.56,200.09Z" transform="translate(-68.15 -26.34)"/><path class="cls-1" d="M194.63,198.1l-4.43-5.94c-.18-.24-.1-.49.24-.74a.8.8,0,0,1,.41-.17.38.38,0,0,1,.34.17l1.25,1.68a6.43,6.43,0,0,1-.1-2.51,2.92,2.92,0,0,1,1.24-1.8,7.11,7.11,0,0,1,1.6-.9.72.72,0,0,1,.77.22.54.54,0,0,1,.14.39.6.6,0,0,1-.22.35,7.3,7.3,0,0,0-1.23.67,2.94,2.94,0,0,0-1.08,2.33,9.23,9.23,0,0,0,.58,3.53l1.48,2a.42.42,0,0,1,0,.39.67.67,0,0,1-.27.36C195.07,198.36,194.81,198.35,194.63,198.1Z" transform="translate(-68.15 -26.34)"/><path class="cls-1" d="M198.58,190.21a3.89,3.89,0,0,1-.94-1.73,3.69,3.69,0,0,1,0-1.81,6.07,6.07,0,0,1,.73-1.65,7.13,7.13,0,0,1,1.17-1.4,4,4,0,0,1,2.36-1.19,2.15,2.15,0,0,1,1.84.68,2.3,2.3,0,0,1,.51,2.12,4.87,4.87,0,0,1-1.68,2.6,10.69,10.69,0,0,1-2.78,1.87,3.33,3.33,0,0,0,2.25.75,3.52,3.52,0,0,0,2.33-1,5.28,5.28,0,0,0,1-1.22,3.16,3.16,0,0,0,.5-1.36.26.26,0,0,1,.11-.28.79.79,0,0,1,.51-.18.54.54,0,0,1,.48.13,2.56,2.56,0,0,1-.36,2,7.76,7.76,0,0,1-1.47,1.88,4.6,4.6,0,0,1-6.58-.23Zm.42-1.51a7.88,7.88,0,0,0,2.67-1.69,4.34,4.34,0,0,0,1.32-1.83,1.28,1.28,0,0,0-.14-1.27,1,1,0,0,0-1-.2,4,4,0,0,0-1.61,1,3.93,3.93,0,0,0-1.25,1.94A3.81,3.81,0,0,0,199,188.7Z" transform="translate(-68.15 -26.34)"/><path class="cls-1" d="M212.17,182.29l-8.2-7c-.23-.19-.2-.45.07-.78a.79.79,0,0,1,.37-.24.39.39,0,0,1,.37.08l8.19,7a.38.38,0,0,1,.14.36.78.78,0,0,1-.18.42C212.66,182.44,212.4,182.49,212.17,182.29Z" transform="translate(-68.15 -26.34)"/><path class="cls-1" d="M214.85,179.29l-6.07-4.37a.38.38,0,0,1-.17-.34.75.75,0,0,1,.16-.41c.24-.35.49-.43.73-.25l1.08.77a5.93,5.93,0,0,1,0-2.48,5.68,5.68,0,0,1,1-2.26,3.73,3.73,0,0,1,2.33-1.57,3.33,3.33,0,0,1,2.69.63l1.24.9,2.44,1.77a.4.4,0,0,1,.18.35.81.81,0,0,1-.16.43c-.24.33-.48.41-.74.22L216,170.11a2.17,2.17,0,0,0-2-.38,2.85,2.85,0,0,0-1.54,1.05,4.65,4.65,0,0,0-.8,2.51,4.38,4.38,0,0,0,.62,2.64l3.27,2.35q.38.27,0,.78a.72.72,0,0,1-.35.28A.38.38,0,0,1,214.85,179.29Z" transform="translate(-68.15 -26.34)"/><path class="cls-1" d="M215,166.34a.76.76,0,0,1-.32-.32.41.41,0,0,1,0-.39l.29-.5-1.79-1a.39.39,0,0,1-.2-.32.79.79,0,0,1,.11-.43c.21-.36.44-.47.71-.32l1.78,1,1.33-2.32a.38.38,0,0,1,.32-.21.79.79,0,0,1,.43.11c.37.21.48.45.33.71l-1.33,2.32,3.47,2c1.08.62,1.86.52,2.33-.3a1.75,1.75,0,0,0,.23-1.08,1.37,1.37,0,0,0-.8-1,.51.51,0,0,1-.24-.36.76.76,0,0,1,.1-.48.62.62,0,0,1,.33-.29.5.5,0,0,1,.44.06,2.63,2.63,0,0,1,1.36,1.7,2.72,2.72,0,0,1-.35,2q-1.32,2.31-4.41.54L216,165.75l-.28.49C215.59,166.51,215.34,166.55,215,166.34Z" transform="translate(-68.15 -26.34)"/><path class="cls-1" d="M221.65,161.38a3.77,3.77,0,0,1-1.55-1.21,3.57,3.57,0,0,1-.7-1.67,6.1,6.1,0,0,1,0-1.81,7,7,0,0,1,.52-1.74,4,4,0,0,1,1.69-2,2.16,2.16,0,0,1,2-.11,2.32,2.32,0,0,1,1.31,1.74,5,5,0,0,1-.51,3.06,11,11,0,0,1-1.82,2.81,3.3,3.3,0,0,0,2.37-.2,3.56,3.56,0,0,0,1.74-1.84,5.59,5.59,0,0,0,.43-1.52,3.1,3.1,0,0,0-.09-1.45.27.27,0,0,1,0-.3.83.83,0,0,1,.39-.37.59.59,0,0,1,.5-.07,2.57,2.57,0,0,1,.47,2,7.54,7.54,0,0,1-.6,2.31,4.5,4.5,0,0,1-2.62,2.52A4.44,4.44,0,0,1,221.65,161.38Zm-.23-1.55a7.57,7.57,0,0,0,1.78-2.61,4.32,4.32,0,0,0,.49-2.2,1.28,1.28,0,0,0-.63-1.11,1,1,0,0,0-1,.23A3.9,3.9,0,0,0,221,155.7a4,4,0,0,0-.37,2.28A3.87,3.87,0,0,0,221.42,159.83Z" transform="translate(-68.15 -26.34)"/><path class="cls-1" d="M229.59,152.88l-7-2.31c-.29-.1-.37-.35-.23-.75a.75.75,0,0,1,.24-.37.38.38,0,0,1,.37-.06l2,.65a6.18,6.18,0,0,1-1.53-2,3,3,0,0,1,0-2.18,7.62,7.62,0,0,1,.79-1.66.72.72,0,0,1,.76-.26.55.55,0,0,1,.34.24.66.66,0,0,1,0,.41,6.31,6.31,0,0,0-.63,1.25,2.9,2.9,0,0,0,.46,2.53,9.23,9.23,0,0,0,2.5,2.55l2.35.78a.38.38,0,0,1,.27.28.7.7,0,0,1,0,.45C230.1,152.83,229.88,153,229.59,152.88Z" transform="translate(-68.15 -26.34)"/><path class="cls-1" d="M232.35,144.37,225,142.84a.38.38,0,0,1-.29-.24.81.81,0,0,1,0-.44c.09-.42.28-.6.58-.53l1.29.27a6.16,6.16,0,0,1-1-2.28,6,6,0,0,1,0-2.46,3.78,3.78,0,0,1,1.5-2.38,3.33,3.33,0,0,1,2.72-.52l1.49.32,3,.63a.39.39,0,0,1,.29.25.76.76,0,0,1,0,.45c-.09.41-.28.58-.59.51l-4.3-.9a2.16,2.16,0,0,0-2,.45,2.89,2.89,0,0,0-1,1.59,4.58,4.58,0,0,0,.28,2.61,4.27,4.27,0,0,0,1.64,2.16l3.94.83c.3.06.4.3.32.72a.82.82,0,0,1-.21.39A.37.37,0,0,1,232.35,144.37Z" transform="translate(-68.15 -26.34)"/><path class="cls-1" d="M232,132.63a5.07,5.07,0,0,1-3.71-2.06,5.77,5.77,0,0,1-1.3-4.1,3.45,3.45,0,0,1,1.36-2.49,3.76,3.76,0,0,1,2.71-.85l4.36.36a.39.39,0,0,1,.33.24.94.94,0,0,1,.09.47q0,.55-.51.51l-2.82-.23a11.29,11.29,0,0,1,2.33,2.78,4.72,4.72,0,0,1,.58,2.59,2.86,2.86,0,0,1-1.15,2A3.1,3.1,0,0,1,232,132.63Zm.13-1.19a1.71,1.71,0,0,0,1.5-.55,2.39,2.39,0,0,0,.61-1.38,3.51,3.51,0,0,0-.7-2.06,8.86,8.86,0,0,0-1.77-2,3.44,3.44,0,0,0-1.6-.88,1.56,1.56,0,0,0-.92.22,1.87,1.87,0,0,0-.63.68,5.92,5.92,0,0,0-.34.75,2.21,2.21,0,0,0-.13.58,4.53,4.53,0,0,0,4,4.65Z" transform="translate(-68.15 -26.34)"/><path class="cls-1" d="M228,121.71a.69.69,0,0,1-.43-.11.38.38,0,0,1-.19-.34l0-.57-2.05,0a.37.37,0,0,1-.34-.17.8.8,0,0,1-.13-.42c0-.43.14-.64.44-.65l2.06,0,0-2.67a.35.35,0,0,1,.17-.34.77.77,0,0,1,.42-.13c.42,0,.64.14.64.44l.06,2.68,4-.08c1.24,0,1.86-.51,1.84-1.46a1.76,1.76,0,0,0-.35-1,1.4,1.4,0,0,0-1.18-.42.48.48,0,0,1-.39-.18.68.68,0,0,1-.16-.46.59.59,0,0,1,.13-.42.51.51,0,0,1,.41-.18,2.66,2.66,0,0,1,2,.76,2.8,2.8,0,0,1,.74,1.92q0,2.66-3.51,2.73l-3.55.07v.56C228.66,121.55,228.46,121.71,228,121.71Z" transform="translate(-68.15 -26.34)"/><path class="cls-1" d="M225,114.25l-.31,0c-.3,0-.46-.18-.5-.6a.79.79,0,0,1,.09-.44.38.38,0,0,1,.32-.2l.3,0a.38.38,0,0,1,.35.16.66.66,0,0,1,.16.42C225.48,114,225.34,114.23,225,114.25Zm10-.78-7.42.58c-.3,0-.47-.17-.5-.6a.85.85,0,0,1,.08-.43.39.39,0,0,1,.32-.2l7.42-.59a.41.41,0,0,1,.36.16.77.77,0,0,1,.16.42C235.48,113.23,235.34,113.44,235,113.47Z" transform="translate(-68.15 -26.34)"/><path class="cls-1" d="M231.21,110.64a4.14,4.14,0,0,1-2.58-.36,4.49,4.49,0,0,1-1.78-1.58,5.71,5.71,0,0,1-.82-2.17,4.52,4.52,0,0,1,.77-3.24,4.07,4.07,0,0,1,2.92-1.9,4.35,4.35,0,0,1,5.07,3.79,4.89,4.89,0,0,1-.74,3.57A4.07,4.07,0,0,1,231.21,110.64Zm-.18-1.22a2.91,2.91,0,0,0,2-1.42,3.64,3.64,0,0,0,.57-2.64,3.34,3.34,0,0,0-3.65-2.75,3.22,3.22,0,0,0-2,1.26,3,3,0,0,0-.64,2.5,3.42,3.42,0,0,0,1.44,2.46A3.27,3.27,0,0,0,231,109.42Z" transform="translate(-68.15 -26.34)"/><path class="cls-1" d="M232.87,98.39l-7.19,2.09a.38.38,0,0,1-.37-.08.79.79,0,0,1-.23-.38c-.12-.4,0-.65.26-.73l1.27-.37a6,6,0,0,1-1.94-1.55,5.88,5.88,0,0,1-1.18-2.16,3.77,3.77,0,0,1,.21-2.81,3.35,3.35,0,0,1,2.15-1.73l1.48-.42,2.9-.83a.41.41,0,0,1,.38.08.86.86,0,0,1,.24.39c.11.39,0,.63-.28.72l-4.22,1.23a2.15,2.15,0,0,0-1.52,1.32,2.84,2.84,0,0,0-.12,1.85,4.68,4.68,0,0,0,1.47,2.18,4.35,4.35,0,0,0,2.47,1.14l3.87-1.13c.29-.08.49.08.61.49a.74.74,0,0,1,0,.44A.37.37,0,0,1,232.87,98.39Z" transform="translate(-68.15 -26.34)"/><path class="cls-1" d="M227.06,88.2a5.07,5.07,0,0,1-4.24-.07,5.71,5.71,0,0,1-3.08-3,3.43,3.43,0,0,1,0-2.84,3.73,3.73,0,0,1,2-2l4-1.73a.39.39,0,0,1,.4,0,.94.94,0,0,1,.3.38q.21.5-.21.69l-2.6,1.12A11.14,11.14,0,0,1,227,82.13a4.8,4.8,0,0,1,1.73,2,2.86,2.86,0,0,1-.06,2.34A3.07,3.07,0,0,1,227.06,88.2Zm-.45-1.12a1.64,1.64,0,0,0,1.06-1.19,2.31,2.31,0,0,0-.11-1.5A3.47,3.47,0,0,0,226,82.91a9,9,0,0,0-2.51-1,3.33,3.33,0,0,0-1.82,0,1.56,1.56,0,0,0-.71.63,1.78,1.78,0,0,0-.24.89,5,5,0,0,0,.06.82,2.35,2.35,0,0,0,.14.58,4.17,4.17,0,0,0,2.39,2.2A4.09,4.09,0,0,0,226.61,87.08Z" transform="translate(-68.15 -26.34)"/><path class="cls-1" d="M224.5,76.46l-10.26,5.47c-.27.14-.5,0-.7-.35a.76.76,0,0,1-.1-.43.39.39,0,0,1,.22-.31l10.25-5.47a.39.39,0,0,1,.39,0,.82.82,0,0,1,.32.32C224.81,76.06,224.77,76.31,224.5,76.46Z" transform="translate(-68.15 -26.34)"/></svg>